<mxfile host="app.diagrams.net" modified="2023-12-06T19:14:11.349Z" agent="Mozilla/5.0 (Windows NT 10.0; Win64; x64) AppleWebKit/537.36 (KHTML, like Gecko) Chrome/119.0.0.0 Safari/537.36" etag="2sJKfkf1RFklOXBXDhpZ" version="22.1.7" type="google">
  <diagram name="Page-1" id="ETrwtiT-uWqB2bb5ggQq">
    <mxGraphModel grid="1" page="1" gridSize="10" guides="1" tooltips="1" connect="1" arrows="1" fold="1" pageScale="1" pageWidth="850" pageHeight="1100" math="0" shadow="0">
      <root>
        <mxCell id="0" />
        <mxCell id="1" parent="0" />
        <mxCell id="7d45l8tB_1FJDII6uIaR-1" value="Controller Data" style="rounded=1;whiteSpace=wrap;html=1;" vertex="1" parent="1">
          <mxGeometry x="70" y="190" width="120" height="60" as="geometry" />
        </mxCell>
        <mxCell id="7d45l8tB_1FJDII6uIaR-2" value="Master Board" style="rounded=1;whiteSpace=wrap;html=1;" vertex="1" parent="1">
          <mxGeometry x="250" y="190" width="120" height="60" as="geometry" />
        </mxCell>
        <mxCell id="7d45l8tB_1FJDII6uIaR-3" value="Drive Board" style="rounded=1;whiteSpace=wrap;html=1;" vertex="1" parent="1">
          <mxGeometry x="470" y="130" width="120" height="60" as="geometry" />
        </mxCell>
        <mxCell id="7d45l8tB_1FJDII6uIaR-4" value="Turret Board" style="rounded=1;whiteSpace=wrap;html=1;" vertex="1" parent="1">
          <mxGeometry x="470" y="320" width="120" height="60" as="geometry" />
        </mxCell>
        <mxCell id="7d45l8tB_1FJDII6uIaR-5" value="Drive Motor" style="rounded=1;whiteSpace=wrap;html=1;" vertex="1" parent="1">
          <mxGeometry x="650" y="60" width="120" height="60" as="geometry" />
        </mxCell>
        <mxCell id="7d45l8tB_1FJDII6uIaR-6" value="Steering Servo" style="rounded=1;whiteSpace=wrap;html=1;" vertex="1" parent="1">
          <mxGeometry x="650" y="130" width="120" height="60" as="geometry" />
        </mxCell>
        <mxCell id="7d45l8tB_1FJDII6uIaR-7" value="Air Pump" style="rounded=1;whiteSpace=wrap;html=1;" vertex="1" parent="1">
          <mxGeometry x="650" y="200" width="120" height="60" as="geometry" />
        </mxCell>
        <mxCell id="7d45l8tB_1FJDII6uIaR-8" value="Cannon Controls" style="rounded=1;whiteSpace=wrap;html=1;" vertex="1" parent="1">
          <mxGeometry x="650" y="280" width="120" height="60" as="geometry" />
        </mxCell>
        <mxCell id="7d45l8tB_1FJDII6uIaR-9" value="Turret Controls" style="rounded=1;whiteSpace=wrap;html=1;" vertex="1" parent="1">
          <mxGeometry x="650" y="350" width="120" height="60" as="geometry" />
        </mxCell>
        <mxCell id="7d45l8tB_1FJDII6uIaR-10" value="" style="endArrow=classic;html=1;rounded=0;entryX=0;entryY=0.5;entryDx=0;entryDy=0;" edge="1" parent="1" target="7d45l8tB_1FJDII6uIaR-2">
          <mxGeometry width="50" height="50" relative="1" as="geometry">
            <mxPoint x="190" y="220" as="sourcePoint" />
            <mxPoint x="210" y="170" as="targetPoint" />
          </mxGeometry>
        </mxCell>
        <mxCell id="7d45l8tB_1FJDII6uIaR-11" value="" style="endArrow=classic;html=1;rounded=0;entryX=0;entryY=0.5;entryDx=0;entryDy=0;" edge="1" parent="1" target="7d45l8tB_1FJDII6uIaR-3">
          <mxGeometry width="50" height="50" relative="1" as="geometry">
            <mxPoint x="370" y="219.5" as="sourcePoint" />
            <mxPoint x="460" y="219.5" as="targetPoint" />
            <Array as="points">
              <mxPoint x="400" y="220" />
              <mxPoint x="400" y="160" />
            </Array>
          </mxGeometry>
        </mxCell>
        <mxCell id="7d45l8tB_1FJDII6uIaR-12" value="" style="endArrow=classic;html=1;rounded=0;entryX=0;entryY=0.5;entryDx=0;entryDy=0;" edge="1" parent="1" target="7d45l8tB_1FJDII6uIaR-4">
          <mxGeometry width="50" height="50" relative="1" as="geometry">
            <mxPoint x="370" y="219.5" as="sourcePoint" />
            <mxPoint x="470" y="160" as="targetPoint" />
            <Array as="points">
              <mxPoint x="400" y="220" />
              <mxPoint x="400" y="350" />
            </Array>
          </mxGeometry>
        </mxCell>
        <mxCell id="7d45l8tB_1FJDII6uIaR-13" value="" style="endArrow=classic;html=1;rounded=0;entryX=0;entryY=0.5;entryDx=0;entryDy=0;" edge="1" parent="1" target="7d45l8tB_1FJDII6uIaR-6">
          <mxGeometry width="50" height="50" relative="1" as="geometry">
            <mxPoint x="590" y="160" as="sourcePoint" />
            <mxPoint x="640" y="110" as="targetPoint" />
          </mxGeometry>
        </mxCell>
        <mxCell id="7d45l8tB_1FJDII6uIaR-14" value="" style="endArrow=classic;html=1;rounded=0;entryX=0;entryY=0.5;entryDx=0;entryDy=0;" edge="1" parent="1" target="7d45l8tB_1FJDII6uIaR-5">
          <mxGeometry width="50" height="50" relative="1" as="geometry">
            <mxPoint x="590" y="160" as="sourcePoint" />
            <mxPoint x="640" y="110" as="targetPoint" />
            <Array as="points">
              <mxPoint x="610" y="160" />
              <mxPoint x="610" y="90" />
            </Array>
          </mxGeometry>
        </mxCell>
        <mxCell id="7d45l8tB_1FJDII6uIaR-15" value="" style="endArrow=classic;html=1;rounded=0;entryX=0;entryY=0.5;entryDx=0;entryDy=0;exitX=1;exitY=0.5;exitDx=0;exitDy=0;" edge="1" parent="1" source="7d45l8tB_1FJDII6uIaR-3" target="7d45l8tB_1FJDII6uIaR-7">
          <mxGeometry width="50" height="50" relative="1" as="geometry">
            <mxPoint x="550" y="280" as="sourcePoint" />
            <mxPoint x="600" y="230" as="targetPoint" />
            <Array as="points">
              <mxPoint x="610" y="160" />
              <mxPoint x="610" y="230" />
            </Array>
          </mxGeometry>
        </mxCell>
        <mxCell id="7d45l8tB_1FJDII6uIaR-16" value="" style="endArrow=classic;html=1;rounded=0;entryX=0;entryY=0.5;entryDx=0;entryDy=0;" edge="1" parent="1" target="7d45l8tB_1FJDII6uIaR-8">
          <mxGeometry width="50" height="50" relative="1" as="geometry">
            <mxPoint x="590" y="350" as="sourcePoint" />
            <mxPoint x="640" y="300" as="targetPoint" />
            <Array as="points">
              <mxPoint x="610" y="350" />
              <mxPoint x="610" y="310" />
            </Array>
          </mxGeometry>
        </mxCell>
        <mxCell id="7d45l8tB_1FJDII6uIaR-17" value="" style="endArrow=classic;html=1;rounded=0;entryX=0;entryY=0.5;entryDx=0;entryDy=0;" edge="1" parent="1" target="7d45l8tB_1FJDII6uIaR-9">
          <mxGeometry width="50" height="50" relative="1" as="geometry">
            <mxPoint x="590" y="350" as="sourcePoint" />
            <mxPoint x="640" y="300" as="targetPoint" />
            <Array as="points">
              <mxPoint x="610" y="350" />
              <mxPoint x="610" y="380" />
            </Array>
          </mxGeometry>
        </mxCell>
      </root>
    </mxGraphModel>
  </diagram>
</mxfile>
